/* XPM */
static char *_c132366a1fd430ed5cd8547616ac73b[] = {
/* columns rows colors chars-per-pixel */
"200 90 3 1 ",
"  c gray50",
". c #808080",
"X c None",
/* pixels */
"XXXXXXXXXXXXXXXXXXXXXXXXXXXXXXXXXXXXXXXXXXXXXXXXXXXXXXXXXXXXXXXXXXXXXXXXXXXXXXXXXXXXXXXXXXXXXXXXXXXXXXXXXXXXXXXXXXXXXXXXXXXXXXXXXXXXXXXXXXXXXXXXXXXXXXXXXXXXXXXXXXXXXXXXXXXXXXXXXXXXXXXXXXXXXXXXXXXXXXXX",
"XXXXXXXXXXXXXXXXXXXXXXXXXXXXXXXXXXXXXXXXXXXXXXXXXXXXXXXXXXXXXXXXXXXXXXXXXXXXXXXXXXXXXXXXXXXXXXXXXXXXXXXXXXXXXXXXXXXXXXXXXXXXX....XXXXXXXXXXXXXXXXXXXXX.....XXXXXXXXXXXXXXXXXXXXXXXXXXXXXXXXXXXXXXXXXXXXX",
"XXXXXXXXXXXXXXXXXXXXXXXXXXXXXXXXXXXXXXXXXXXXXXXXXXXXXXXXXXXXXXXXXXXXXXXXXXXXXXXXXXXXXXXXXXXXXXXXXXXXXXXXXXXXXXXXXXXXXXXXXXX.......XXXXXXXXXXXXXXXXXX....... XXXXXXXXXXXXXXXXXXXXXXXXXXXXXXXXXXXXXXXXXXXX",
"XXXXXXXXXXXXXXXXXXXXXXXXXXXXXXXXXXXXXXXXXXXXXXXXXXXXXXXXXXXXXXXXXXXXXXXXXXXXXXXXXXXXXXXXXXXXXXXXXXXXXXXXXXXXXXXXXXXXXXXXXX .......XXXXXXXXXXXXXXXXX ........XXXXXXXXXXXXXXXXXXXXXXXXXXXXXXXXXXXXXXXXXXXX",
"XXXXXXXXXXXXXXXXXXXXXXXXXXXXXXXXXXXXXXXXXXXXXXXXXXXXXXXXXXXXXXXXXXXXXXXXXXXXXXXXXXXX....XXXXXXXXXXXXXXXXXXXXXXXXXXXXXXXXXX........ XXXXXXXXXXXXXXXX.........XXXXXXXXXXXXXXXXXXXXXXXXXXXXXXXXXXXXXXXXXXXX",
"XXXXXXXXXXXXXXXXXXXXXXXXXXXXXXXXXXXXXXXXXXXXXXXXXXXXXXXXXXXXXXXXXXXXXXXXXXXXXXXXXX.......XXXXXXXXXXXXXXXXXXXXXXXXXXXXXXXX.....X....XXXXXXXXXXXXXXX.....X.....XXXXXXXXXXXXXXXXXXXXXXXXXXXXXXXXXXXXXXXXXXX",
"XXXXXXXXXXXXXXXXXXXXXXXXXXXXXXXXXXXXXXXXXXXXXXXXXXXXXXXXXXXXXXXXXXXXXXXXXXXXXXXXX.........XXXXXXXXXXXXXXXXXXXXXXXXXXXXXXX....XX....XXXXXXXXXXXXXXX....XX.....XXXXXXXXXXXXXXXXXXXXXXXXXXXXXXXXXXXXXXXXXXX",
"XXXXXXXXXXXXXXXXXXXXXXXXXXXXXXXXXXXXXXXXXXXXXXXXXXXXXXXXXXXXXXXXXXXXXXXXXXXXXXXXX.........XXXXXXXXXXXXXXXXXXXXXXXXXXXXXX.....XX....XXXXXXXXXXXXXX.....XXX....XXXXXXXXXXXXXXXXXXXXXXXXXXXXXXXXXXXXXXXXXXX",
"XXXXXXXXXXXXXXXXXXXXXXXXXXXXXXXXXXXXXXXXXXXXXXXXXXXXXXXXXXXXXXXXXXXXXXXXXXXXXXXX....XX....XXXXXXXXXXXXXXXXXXXXXXXXXXXXXX.... XX....XXXXXXXXXXXXXX....XXX.... XXXXXXXXXXXXXXXXXXXXXXXXXXXXXXXXXXXXXXXXXXX",
"XXXXXXXXXXXXXXXXXXXXXXXXXXXXXXXXXXXXXXXXXXXXXXXXXXXXXXXXXXXXXXXXXXXXXXXXXXXXXXX.....XX....XXXXXXXXXXXXXXXXXXXXXXXXXXXXXX....XXX....XXXXXXXXXXXXX.....XXX.....XXXXXXXXXXXXXXXXXXXXXXXXXXXXXXXXXXXXXXXXXXX",
"XXXXXXXXXXXXXXXXXXXXXXXXXXXXXXXXXXXXXXXXXXXXXXXXXXXXXXXXXXXXXXXXXXXXXXXXXXXXXXX....XXX....XXXXXXXXXXXXXXXXXXXXXXXXXXXXXX....XXX....XXXXXXXXXXXXX.....XXX....XXXXXXXXXXXXXXXXXXXXXXXXXXXXXXXXXXXXXXXXXXXX",
"XXXXXXXXXXXXXXXXXXXXXXXXXXXXXXXXXXXXXXXXXXXXXXXXXXXXXXXXXXXXXXXXXXXXXXXXXXXXXX.....XXX....XXXXXXXXXXXXXXXXXXXXXXXXXXXXX ....XXX....XXXXXXXXXXXXX....XXXX....XXXXXXXXXXXXXXXXXXXXXXXXXXXXXXXXXXXXXXXXXXXX",
"XXXXXXXXXXXXXXXXXXXXXXXXXXXXXXXXXXXXXXXXXXXXXXXXXXXXXXXXXXXXXXXXXXXXXXXXXXXXXX.... XXX....XXXXXXXXXXXXXXXXXXXXXXXXXXXXX.....XXX....XXXXXXXXXXXX.....XXXX....XXXXXXXXXXXXXXXXXXXXXXXXXXXXXXXXXXXXXXXXXXXX",
"XXXXXXXXXXXXXXXXXXXXXXXXXXXXXXXXXXXXXXXXXXXXXXXXXXXXXXXXXXXXXXXXXXXXXXXXXXXXXX....XXX ...XXXXXXXXXXXXXXXXXXXXXXXXXXXXXX.... XXX...XXXXXXXXXXXXX.....XXX ... XXXXXXXXXXXXXXXXXXXXXXXXXXXXXXXXXXXXXXXXXXXX",
"XXXXXXXXXXXXXXXXXXXXXXXXXXXXXXXXXXXXXXXXXXXXXXXXXXXXXXXXXXXXXXXXXXXXXXXXXXXXX.....XXX....XXXXXXXXXXXXXXXXXXXXXXXXXXXXXX....XXX ...XXXXXXXXXXXXX.....XXX....XXXXXXXXXXXXXXXXXXXXXXXXXXXXXXXXXXXXXXXXXXXXX",
"XXXXXXXXXXXXXXXXXXXXXXXXXXXXXXXXXXXXXXXXXXXXXXXXXXXXXXXXXXXXXXXXXXXXXXXXXXXXX.....XXX... XXXXXXXXXXXXXXXXXXXXXXXXXXXXX.....XXX... XXXXXXXXXXXX......XXX....XXXXXXXXXXXXXXXXXXXXXXXXXXXXXXXXXXXXXXXXXXXXX",
"XXXXXXXXXXXXXXXXXXXXXXXXXXXXXXXXXXXXXXXXXXXXXXXXXXXXXXXXXXXXXXXXXXXXXXXXXXXXX.....XX....XXXXXXXXXXXXXXXXXXXXXXXXXXXXXX ....XXX...XXXXXXXXXXXXX.....XXX....XXXXXXXXXXXXXXXXXXXXXXXXXXXXXXXXXXXXXXXXXXXXXX",
"XXXXXXXXXXXXXXXXXXXXXXXXXXXXXXXXXXXXXXXXXXXXXXXXXXXXXXXXXXXXXXXXXXXXXXXXXXXX.....XX ....XXXXXXXXXXXXXXXXXXXXXXXXXXXXXX.....XX ...XXXXXXXXXXXXX.....XXX....XXXXXXXXXXXXXXXXXXXXXXXXXXXXXXXXXXXXXXXXXXXXXX",
"XXXXXXXXXXXXXXXXXXXXXXXXXXXXXXXXXXXXXXXXXXXXXXXXXXXXXXXXXXXXXXXXXXXXXXXXXXXX ....XX....XXXXXXXXXXXXXXXXXXXXXXXXXXXXXXX.....XX....XXXXXXXXXXXXX.....XX ...XXXXXXXXXXXXXXXXXXXXXXXXXXXXXXXXXXXXXXXXXXXXXXX",
"XXXXXXXXXXXXXXXXXXXXXXXXXXXXXXXXXXXXXXXXXXXXXXXXXXXXXXXXXXXXXXXXXXXXXXXXXXXX..........XXXXXXXXXXXXXXXXXXXXXXXXXXXXXXXX.....XX...XXXXXXXXXXXXXX.....XX...XXXXXXXXXXXXXXXXXXXXXXXXXXXXXXXXXXXXXXXXXXXXXXXX",
"XXXXXXXXXXXXXXXXXXXXXXXXXXXXXXXXXXXXXXXXXXXXXXXXXXXXXXXXXXXXXXXXXXXXXXXXXXXX.........XXXXXXXXXXXXXXXXXXXXXXXXXXXXXXXXX.....X ...XXXXXXXXXXXXX......X... XXXXXXXXXXXXXXXXXXXXXXXXXXXXXXXXXXXXXXXXXXXXXXXX",
"XXXXXXXX....XXXXXXXXX...XXXXXX....XXXXXXXXXX....XXXXXXXXXXXXXX...XXXXXXX..................XXXXXXX....XXXXXXXXXXXXXX........X... XXXXXXXXXXXXX......X....XXXXXXXXXXXX....XXXXXX...XXXXXXXXXXXXXXXXXXXXXXX",
"XXXXXX........XXXXX ....XXXXX..... XXXXXX........XXXXXXXXXXX......XXXXXX...................XXXX........XXXXXXXXXX..........X...XXXXXXXXXXXXXX..... .......XXXXXXXXX.....XXXXX.....XXXXXXXXXXXXXXXXXXXXXX",
"XXXXX..........XXXX.....XXX........XXXXX..........XXXXXXXX............X...................XXX...........XXXXXXXX.............. XXXXXXXXXXXXXX...............XXXXXXX.....XXXXX....XXXXXXXXXXXXXXXXXXXXXXX",
"XXX............XXXX.....XX.........XXXX............XXXXXX.............XX.................XXX ...........XXXXXX................XXXXXXXXXXXXXXX...............XXXXXX .....XXXX ....XXXXXXXXXXXXXXXXXXXXXXX",
"XXX......X.....XXX.....XX......... XXX.......X.....XXXXX.......XX.....XXXXX......XXXXXXXXXXX......X......XXXX.................XXXXXXXXXXXXXXX........ .......XXXXX.....XXXXX.....XXXXXXXXXXXXXXXXXXXXXXX",
"XX......XXX....XXX.....XX..........XX .....XXXX....XXXX......XXX..... XXXXX......XXXXXXXXXX......XXX.....XXXX......XX........XXXXXXXXXXXXXXXX.......XX.......XXXXX.....XXXXX.....XXXXXXXXXXXXXXXXXXXXXXX",
"XX.....XXXX....XXX.....X..........XXX.....XXXXX....XXXX.....XXXX......XXXXX......XXXXXXXXXX.....XXXX.....XXX......XXX........XXXXXXXXXXXXXXXX......XXX....... XXX......XXXX......XXXXXXXXXXXXXXXXXXXXXXX",
"X..... XXXX....XXX.....X....X.....XXX.....XXXX.....XXX......XXXX.....XXXXXX......XXXXXXXXX ....XXXXX.....XXX.....XXXX.......XXXXXXXXXXXXXXXXX..... XXX........XXX..... XXXX......XXXXXXXXXXXXXXXXXXXXXXX",
"X.....XXXXX...XXX..... ....XX.....XX .....XXXX.... XXX.....XXXXX.....XXXXXX......XXXXXXXXX.....XXXX.....XXX......XXXX.......XXXXXXXXXXXXXXXXX.....XXXXX...............XXXXX......XXXXXXXXXXXXXXXXXXXXXXX",
"X.....XXXXXXXXXXX.........XXX............XXX......XXX......XXXXX.....XXXXXX......XXXXXXXXX.....XXX..... XXX.....XXXXX......XXXXXXXXXXXXXXXXXX.....XXXXX...............XXXX......XXXXXXXXXXXXXXXXXXXXXXXX",
"X.....XXXXXXXXXXX.........XXX....................XXXX..... XXXX......XXXXXX......XXXXXXXXX.....X.......XXXX.....XXXXX......XXXXXXXXXXXXXXXXXX.....XXXXXX..............XXXX......XXXXXXXXXXXXXXXXXXXXXXXX",
"X.....XXXXXXXXXXX .......XXXX ..................XXXXX.....XXXXX..... XXXXX.......XXXXXXXXX........... XXXXX.....XXXXX......XXXXXXX..XXXXXXXXX.....XXXXXXX.............XXX.......XXXXX.. XXXXXXXXXXXXXXXX",
"X.....XXXXXXXXXXX....... XXXXX................XXXXXXX.....XXXXX......XXXX........XXXXXXXXX..........XXXXXX......XXXXXX.... XXXXXX....XXXXXXXX.....XXXXXXX.....XXX.....XXX.......XXXX....XXXXXXXXXXXXXXXX",
"X......XXXXXXXXX........XXXXXXX............ XXXXXXXX......XXXXX.....XXXXX........XXXXXXXX........XXXXXXXXX......XXXXX......XXXXX.....XXXXXXXX......XXXXX.....XXXX.....XX........XX......XXXXXXXXXXXXXXXX",
"X......XXXXXXXX.........XXXXXXXXXXXXX.....XXXXXXXXX.......XXXX......XXXX..........XXXXXX........XXXXXXXX........XXXX.......XXXX.....XXXXXXXXXX.....XXXXX.....XXXX...............X......XXXXXXXXXXXXXXXXX",
"X........XXX........... XXXXXXXXXXXXX......XXXXXX..........XX........X...... .......XX...........XXXXX...........XX.........X......XXXXXXXXXXX......XX......XXXXX......... ...........XXXXXXXXXXXXXXXXXX",
"XX.....................XXXXXXXXXXXXXXX.....................................XX......................................................XXXXXXXXXXX..............XXXXX....................XXXXXXXXXXXXXXXXXXX",
"XXX....................XXXXXXXXXXXXXXX............... ..........X.........XXXX............ X..........................X ..........XXXXXXXXXXXXX............XXXXXX........X.........XXXXXXXXXXXXXXXXXXXXX",
"XXXX........... XX.....XXXXXXXXXXXXXXXX.............XX.........XX........XXXXXX...........XXX ............XX ........XXX........XXXXXXXXXXXXXXXX......... XXXXXXXX...... X....... XXXXXXXXXXXXXXXXXXXXXX",
"XXXXX........ XXXX....XXXXXXXXXXXXXXXXXXX ........XXXXXX......XXXX ....XXXXXXXXX .......XXXXXXX.........XXXXXX..... XXXXX......XXXXXXXXXXXXXXXXXX.......XXXXXXXXXXX....XXX......XXXXXXXXXXXXXXXXXXXXXXXX",
"XXXXXXXXXXXXXXXXXXXXXXXXXXXXXXXXXXXXXXXXXXXXXXXXXXXXXXXXXXXXXXXXXXXXXXXXXXXXXXXXXXXXXXXXXXXXXXXXXXXXXXXXXXXXXXXXXXXXXXXXXXXXXXXXXXXXXXXXXXXXXXXXXXXXXXXXXXXXXXXXXXXXXXXXX..... XXXXXXXXXXXXXXXXXXXXXXXXX",
"XXXXXXXXXXXXXXXXXXXXXXXXXXXXXXXXXXXXXXXXXXXXXXXXXXXXXXXXXXXXXXXXXXXXXXXXXXXXXXXXXXXXXXXXXXXXXXXXXXXXXXXXXXXXXXXXXXXXXXXXXXXXXXXXXXXXXXXXXXXXXXXXXXXXXXXXXXXXXXXXXXXXXXXX......XXXXXXXXXXXXXXXXXXXXXXXXXX",
"XXXXXXXXXXXXXXXXXXXXXXXXXXXXXXXXXXXXXXXXXXXXXXXXXXXXXXXXXXXXXXXXXXXXXXXXXXXXXXXXXXXXXXXXXXXXXXXXXXXXXXXXXXXXXXXXXXXXXXXXXXXXXXXXXXXXXXXXXXXXXXXXXXXXXXXXXXXXXXXXXXXXXX........XXXXXXXXXXXXXXXXXXXXXXXXXX",
"XXXXXXXXXXXXXXXXXXXXXXXXXXXXXXXXXXXXXXXXXXXXXXXXXXXXXXXXXXXXXXXXXXXXXXXXXXXXXXXXXXXXXXXXXXXXXXXXXXXXXXXXXXXXXXXXXXXXXXXXXXXXXXXXXXXXXXXXXXXXXXXXXXXXXXXXXXXXXXXXXXXXX.........XXXXXXXXXXXXXXXXXXXXXXXXXX",
"XXXXXXXXXXXXXXXXXXXXXXXXXXXXXXXXXXXXXXXXXXXXXXXXXXXXXXXXXXXXXXXXXXXXXXXXXXXXXXXXXXXXXXXXXXXXXXXXXXXXXXXXXXXXXXXXXXXXXXXXXXXXXXXXXXXXXXXXXXXXXXXXXXXXXXXXXXXXXXXXXXXX..........XXXXXXXXXXXXXXXXXXXXXXXXXX",
"XXXXXXXXXXXXXXXXXXXXXXXXXXXXXXXXXXXXXXXXXXXXXXXXXXXXXXXXXXXXXXXXXXXXXXXXXXXXXXXXXXXXXXXXXXXXXXXXXXXXXXXXXXXXXXXXXXXXXXXXXXXXXXXXXXXXXXXXXXXXXXXXXXXXXXXXXXXXXXXXXXX.....X....XXXXXXXXXXXXXXXXXXXXXXXXXXX",
"XXXXXXXXXXXXXXXXXXXXXXXXXXXXXXXXXXXXXXXXXXXXXXXXXXXXXXXXXXXXXXXXXXXXXXXXXXXXXXXXXXXXXXXXXXXXXXXXXXXXXXXXXXXXXXXXXXXXXXXXXXXXXXXXXXXXXXXXXXXXXXXXXXXXXXXXXXXXXXXXXX.....X.....XXXXXXXXXXXXXXXXXXXXXXXXXXX",
"XXXXXXXXXXXXXXXXXXXXXXXXXXXXXXXXXXXXXXXXXXXXXXXXXXXXXXXXXXXXXXXXXXXXXXXXXXXXXXXXXXXXXXXXX...XXXXXXXXXXXXXXXXXXXXXXXXXXXXXXXXXXXXXXXXXXXXXXXXXXXXXXXXXXXXXXXXXXXXX.....XX.....XXXXXXXXXXXXXXXXXX....XXXXX",
"XXXXXXXXXXXXXXXXXXXXXXXXXXXXXXXXXXXXXXXXXXXXXXXXXXXXXXXXXXXXXXXXXXXXXXXXXXXXXXXXXXXXXXX.......XXXXXXXXXXXXXXXXXXXXXXXXXXXXXXXXXXXXXXXXXXXXXXXXXXXXXXXXXXXXXXXXXXX....XXX.... XXXXXXXXXXXXXXXXX......XXXX",
"XXXXXXXXXXXXXXXXXXXXXXXXXXXXXXXXXXXXXXXXXXXXXXXXXXXXXXXXXXXXXXXXXXXXXXXXXXXXXXXXXXXXXX........XXXXXXXXXXXXXXXXXXXXXXXXXXXXXXXXXXXXXXXXXXXXXXXXXXXXXXXXXXXXXXXXXX....XXXX....XXXXXXXXXXXXXXXXX.......XXXX",
"XXXXXXXXXXXXXXXXXXXXXXXXXXXXXXXXXXXXXXXXXXXXXXXXXXXXXXXXXXXXXXXXXXXXXXXXXXXXXXXXXXXXX......... XXXXXXXXXXXXXXXXXXXXXXXXXXXXXXXXXXXXXXXXXXXXXXXXXXXXXXXXXXXXXXXX.....XXX.....XXXXXXXXXXXXXXXX.........XXX",
"XXXXXXXXXXXXXXXXXXXXXXXXXXX.....XXXXXXXXXXXX......XXXXXXXXXXXXXXXXXXXXXXXXXXXXXXXXXXX....X.....XXXXXXXXXXXXXXXXXXXXXXXXXXXXXXXXXXXXXXXXXXXXXXXXXXXXXXXXXXXXXXXX....XXXX.... XXXXXXXXXXXXXXX.....X....XXX",
"XXXXXXXXXXXXXXXXXXXXXXXXX........XXXXXXXXX..........XXXXXXXXXXXXXXXXXXXXXXXXXXXXXXXX.....XX....XXXXXXXXXXXXXXXXXXXXXXXXXXXXXXXXXXXXXXXXXXXXXXXXXXXXXXXXXXXXXXXX....XXXX....XXXXXXXXXXXXXXXX....XX....XXX",
"XXXXXXXXXXXXXXXXXXXXXXX...........XXXXXX.............XXXXXXXXXXXXXXXXXXXXXXXXXXXXXXX....XXX....XXXXXXXXXXXXXXXXXXXXXXXXXXXXXXXXXXXXXXXXXXXXXXXXXXXXXXXXXXXXXXXX....XXX.....XXXXXXXXXXXXXXXX....XX....XXX",
"XXXXXXXXXXXXXXXXXXXXXX............XXXXX..............XXXXXXXXXXXXXXXXXXXXXXXXXXXXXX.....XXX....XXXXXXXXXXXXXXXXXXXXXXXXXXXXXXXXXXXXXXXXXXXXXXXXXXXXXXXXXXXXXXX.....XX.....XXXXXXXXXXXXXXXX.... XX....XXX",
"XXXXXXXXXXXXXXXXXXXXX..............XXX................XXXXXXXXXXXXXXXXXXXXXXXXXXXXX....XXXX....XXXXXXXXXXXXXXXXXXXXXXXXXXXXXXXXXXXXXXXXXXXXXXXXXXXXXXXXXXXXXXXX.......... XXXXXXXXXXXXXXXX.....XX....XXX",
"XXXXXXXXXXXXXXXXXXXX...... X.......XXX...... .........XXXXXXXXXXXXXXXXXXXXXXXXXXXX.....XXXX....XXXXXXXXXXXXXXXXXXXXXXXXXXXXXXXXXXXXXXXXXXXXXXXXXXXXXXXXXXXXXXXX..........XXXXXXXXXXXXXXXXX....XXX....XXX",
"XXXXXXXXXXXXXXXXXXX .... XXXX......XX.....XXXXX.......XXXXXXXXXXXXXXXXXXXXXXXXXXXX.... XXXX....XXXXXXXXXXXXXXXXXXXXXXXXXXXXXXXXXXXXXXXXXXXXXXXXXXXXXXXXXXXXXXXX ........XXXXXXXXXXXXXXXXX.....XXX....XXX",
"XXXXXXXXXXXXXXXXXXX.....XXXXX......X.....XXXXXXX......XXXXXXXXXXXXXXXXXXXXXXXXXXXX....XXXX.... XXXXXXXXXXXXXXXXXXXXXXXXXXXXXXXXXXXXXXXXXXXXXXXXXXXXXXXXXXXXXXXXX ......XXXXXXXXXXXXXXXXXX.....XXX... XXX",
"XXXXXXXXXXXXXXXXXXX....XXXXXX......X... XXXXXXXX......XXXXXXXXXXXXXXXXXXXXXXXXXXX ....XXXX ....XXXXXXXXXXXXXXXXXXXXXXXXXXXXXXXXXXXXXXXXXXXXXXXXXXXXXXXXXXXXXXXXXXX...XXXXXXXXXXXXXXXXXXXX.....XXX...XXXX",
"XXXXXXXXXXXXXXXXXXX...XXXXXXX.....X....XXXXXXXXX......XXXXXXXXXXXXXXXXXXXXXXXXXXX.....XXXX....XXXXXXXXXXXXXXXXXXXXXXXXXXXXXXXXXXXXXXXXXXXXXXXXXXXXXXXXXXXXXXXXXXXXXXXXXXXXXXXXXXXXXXXXXXX.... XX....XXXX",
"XXXXXXXXXXXXXXXXXXX  XXXXXXXX.....X...XXXXXXXXXX......XXXXXXXXXXXXXXXXXXXXXXXXXXX.....XXXX....XXXXXXXXXXXXXXXXXXXXXXXXXXXXXXXXXXXXXXXXXXXXXXXXXXXXXXXXXXXXXXXXXXXXXXXXXXXXXXXXXXXXXXXXXXX.....XX....XXXX",
"XXXXXXXXXXXXXXXXXXXXXXXXXXXXX........ XXXXXXXXXX......XXXXXXXXXXXXXXXXXXXXXXXXXXX.... XXX.... XXXXXXXXXXXXXXXXXXXXXXXXXXXXXXXXXXXXXXXXXXXXXXXXXXXXXXXXXXXXXXXXXXXXXXXXXXXXXXXXXXXXXXXXXX.....XXX... XXXX",
"XXXXXXXXXXXXXXXXXXXXXXXXXXXX.........XXXXXXXXXX ......XXXXXXXXXXXXXXXXXXXXXXXXXX.....XXXX....XXXXXXXXXXXXXXXXXXXXXXXXXXXXXXXXXXXXXXXXXXXXXXXXXXXXXXXXXXXXXXXXXXXXXXXXXXXXXXXXXXXXXXXXXXX.....XXX...XXXXX",
"XXXXXXXXXXXXXXXXXXXXXXXXXXXX.........XXXXXXXXXX......XXXXXXXXXXXXXXXXXXXXXXXXXXX.....XXXX....XXXXXXXXXXXXXXXXXXXXXXXXXXXXXXXXXXXXXXXXXXXXXXXXXXXXXXXXXXXXXXXXXXXXXXXXXXXXXXXXXXXXXXXXXXX.....XX ...XXXXX",
"XXXXXXXXXXXXXXXXXXXXXXXXXXXX........XXXXXXXXXXX......XXXXXXXXXXXXXXXXXXXXXXXXXXX.....XXX.... XXXXXXXXXXXXXXXXXXXXXXXXXXXXXXXXXXXXXXXXXXXXXXXXXXXXXXXXXXXXXXXXXXXXXXXXXXXXXXXXXXXXXXXXXXX.....XX....XXXXX",
"XXXXXXXXXXXXXXXXXXXXXXXXXXXX........XXXXXXXXXXX......XXXXXXXXXXXXXXXXXXXXXXXXXXX.....XXX....XXXXXXXXXXXXXXXXXXXXXXXXXXXXXXXXXXXXXXXXXXXXXXXXXXXXXXXXXXXXXXXXXXXXXXXXXXXXXXXXXXXXXXXXXXXX.....XX...XXXXXX",
"XXXXXXXXXXXXXXXXXXXXXXXXXXXX.......XXXXXXXXXXXX......XXXXXXXXXXXXXXX..XXXXXXXXXX.....XXX....XXXXXXXXX.XXXXXXXXXXXX....XXXXXXX....XXXXXXXXXXXX..XXXXXXXXXXXXX..XXXXXXXX.XXXXXXXXXXXXXXX.......X....XXXXXX",
"XXXXXXXXXXXXXXXXXXXXXXXXXXXX.......XXXXXXXXXXX .....XXXXXXXXXXXXX......XXXXXXXXX.... XX....XXXXXXX.......XXXXXXX.......XXXX.......XXXXXXXX......XXXXXXXXXX.....XXXX......XXXXXXXXXXX.........X...XXXXXXX",
"XXXXXXXXXXXXXXXXXXXXXXXXXXXX.......XXXXXXXXXXX......XXXXXXXXXXX............XXXX......XX....XXXXX..........XXXXX..........X.........XXXXXX...........XXXXXX.....XXX........XXXXXXXX...............XXXXXXX",
"XXXXXXXXXXXXXXXXXXXXXXXXXXX.......XXXXXXXXXXXX......XXXXXXXXXX.............XXXX .....X....XXXXX............XXXX................... XXXX.............XXXXX ....XXX.........XXXXXXX........... ....XXXXXXX",
"XXXXXXXXXXXXXXXXXXXXXXXXXXX.......XXXXXXXXXXXX......XXXXXXXXX....... X.....XXXX...........XXXX...... ......XXXX....................XXX ...... X.....XXXXX.....XX..........XXXXXX................XXXXXXXX",
"XXXXXXXXXXXXXXXXXXXXXXXXXXX.......XXXXXXXXXXX...... XXXXXXXXX......XXX.....XXXX.....X....XXXXX.....XXXX....XXXX....XX........X....XXXX......XXX.....XXXXX.....XX.........XXXXXX.......X ........XXXXXXXX",
"XXXXXXXXXXXXXXXXXXXXXXXXXXX...... XXXXXXXXXXX......XXXXXXXXX......XXXX.....XXXX......... XXXX.....XXXXX....XXXX....XX ......XXX...XXX......XXXX.....XXXXX.... X..........XXXXX ..... XX........XXXXXXXXX",
"XXXXXXXXXXXXXXXXXXXXXXXXXXX......XXXXXXXXXXXX......XXXXXXXX .....XXXX .....XXXX.........XXXXX.....XXXX ....XXXXX..XXX...... XXXXXXXXX.....XXXX..... XXXX ..... ...XX.....XXXXX..... XXX........XXXXXXXXX",
"XXXXXXXXXXXXXXXXXXXXXXXXXXX......XXXXXXXXXXXX......XXXXXXXX......XXXX.....XXXXX........XXXXX..... XXXX.... XXXXXXXXXX......XXXXXXXXX..... XXXX......XXXX.....X... XX.....XXXXX.....XXXX.......XXXXXXXXXX",
"XXXXXXXXXXXXXXXXXXXXXXXXXX.......XXXXXXXXXXXX......XXXXXXXX.....XXXXX.....XXXXX....... XXXXX......XXX.....XXXXXXXXXXX......XXXXXXXXX.....XXXXX.....XXXXX..... ...XX......XXXX......XXXX .....XXXXXXXXXXX",
"XXXXXXXXXXXXXXXXXXXXXXXXXX...... XXXXXXXXXXXX......XXXXXXX .....XXXXX.....XXXXX.......XXXXXX.....XX......XXXXXXXXXXXX......XXXXXXXX......XXXXX.....XXXXX........XXX ....XXXXX.....XXXXX......XXXXXXXXXXX",
"XXXXXXXXXXXXXXXXXXXXXXXXXX.......XXXXXXXXXXX...... XXXXXXX..... XXXXX.....XXXXX......XXXXXXX............XXXXXX...XXXX......XXXXXXXX .....XXXXX.....XXXXX........XXX.....XXXXX.....XXXXX......XXXXXXX..XX",
"XXXXXXXXXXXXXXXXXXXXXXXXXX......XXXXXXXXXXXX...... XXXXXXX......XXXX......XXXXX......XXXXXXX.......... XXXXXX....XXXX......XXXXXXXX......XXXX .....XXXXX.......XXXX.....XXXXX.....XXXXXX.....XXXXXX....X",
"XXXXXXXXXXXXXXXXXXXXXXXXXX......XXXXXXXXXXXXX......XXXXXXX......XXXX......XXXX.......XXXXXXX........XXXXXXXX.....XXXX......XXXXXXXX......XXXX......XXXX........XXXX.....XXXX......XXXXX .....XXXXX.... X",
"XXXXXXXXXXXXXXXXXXXXXXXXXX......XXXXXXXXXXXXX......XXXXXX.......XXXX..... XXX........XXXXXX.......XXXXXXXXX......XXX........XXXXXX...... XXXX......XXX........ XXXX.....XXX.......XXXXX......XXXX.....XX",
"XXXXXXXXXXXXXXXXXXXXXXXXXX......XXXXXXXXXXXXX...................XXX.......XX..........XXX..........XXXXXX.........X..........XXXX........XXX.......XX.........XXXX......XX.........XXX........XX..... XX",
"XXXXXXXXXXXXXXXXXXXXXXXXXX......XXXXXXXXXXXXX ................................................................................................................XXXXX..................................XXX",
"XXXXXXXXXXXXXXXXXXXXXXXXXX......XXXXXXXXXXXXXX.......................X.........XX............X................................................X...............XXXXX.....................X ..........XXXX",
"XXXXXXXXXXXXXXXXXXXXXXXXXX.....XXXXXXXXXXXXXXXX...........XX........XX........XXXX..........XXX ............X.........XX...........XX........XX .......X.....XXXXXX..........X.........XXX.........XXXXX",
"XXXXXXXXXXXXXXXXXXXXXXXXXX.....XXXXXXXXXXXXXXXXX .......XXXXX......XXXX......XXXXXX........XXXXXX.........XXXX...... XXXX.........XXXX......XXXX......XXX....XXXXXXX.......XXXX ......XXXXX......XXXXXXX",
"XXXXXXXXXXXXXXXXXXXXXXXXXXXX.XXXXXXXXXXXXXXXXXXXXXXX.XXXXXXXXXX..XXXXXXXX.XXXXXXXXXXX..XXXXXXXXXXXXXX..XXXXXXXXXXXXXXXXXXXXX..XXXXXXXXXX..XXXXXXXX.XXXXXXXX.XXXXXXXXXX..XXXXXXXXXX..XXXXXXXXX.XXXXXXXXXX",
"XXXXXXXXXXXXXXXXXXXXXXXXXXXXXXXXXXXXXXXXXXXXXXXXXXXXXXXXXXXXXXXXXXXXXXXXXXXXXXXXXXXXXXXXXXXXXXXXXXXXXXXXXXXXXXXXXXXXXXXXXXXXXXXXXXXXXXXXXXXXXXXXXXXXXXXXXXXXXXXXXXXXXXXXXXXXXXXXXXXXXXXXXXXXXXXXXXXXXXXX"
};
